<svg width="134" height="37" viewBox="0 0 134 37" fill="none" xmlns="http://www.w3.org/2000/svg">
<g clip-path="url(#clip0_10075_521313)">
<path d="M51.197 2.05042L50.1903 4.06389C49.5068 5.43545 47.5488 5.43545 46.8653 4.06389L45.8585 2.05042C45.2305 0.794306 43.9467 0 42.5428 0H4.2083C2.15788 0 0.5 1.65788 0.5 3.7083V33.2361C0.5 35.2819 2.15788 36.9444 4.2083 36.9444H42.5428C43.9467 36.9444 45.2305 36.1501 45.8585 34.894L46.8653 32.8806C47.5488 31.509 49.5068 31.509 50.1903 32.8806L51.197 34.894C51.8251 36.1501 53.1089 36.9444 54.5128 36.9444H129.792C131.837 36.9444 133.5 35.2866 133.5 33.2361V3.7083C133.5 1.6625 131.842 0 129.792 0H54.5128C53.1089 0 51.8251 0.794306 51.197 2.05042Z" fill="#002743"/>
<path d="M25.8391 7.4489H31.5424V29.5555H25.8391V26.9463C24.1165 29.1122 21.729 30.1743 18.6349 30.1743C15.5408 30.1743 13.1533 29.0706 11.0289 26.8124C8.95082 24.5588 7.88867 21.7741 7.88867 18.4999C7.88867 15.2257 8.95082 12.4872 11.0289 10.2336C13.1486 7.97997 15.6701 6.83008 18.6349 6.83008C21.5997 6.83008 24.1165 7.89223 25.8391 10.0581V7.4489ZM19.6924 24.7343C21.4611 24.7343 22.9204 24.1616 24.0703 23.0117C25.2202 21.8618 25.8391 20.3148 25.8391 18.5045C25.8391 16.6942 25.2664 15.1888 24.0703 14.0389C22.9204 12.8474 21.4611 12.2701 19.6924 12.2701C17.9237 12.2701 16.4644 12.8428 15.3145 14.0389C14.1646 15.1888 13.592 16.6896 13.592 18.5045C13.592 20.3194 14.1646 21.8203 15.3145 23.0117C16.4644 24.1616 17.9237 24.7343 19.6924 24.7343Z" fill="white"/>
<path d="M32.9697 10.2884C32.9697 7.67921 35.2049 5.43945 37.8787 5.43945C40.5526 5.43945 42.8524 7.67459 42.8524 10.2884C42.8524 12.9022 40.6172 15.0727 37.8787 15.0727C35.1402 15.0727 32.9697 12.8976 32.9697 10.2884Z" fill="#01497C"/>
<path d="M34.3916 10.2798C34.3916 8.42331 35.9848 6.83008 37.8829 6.83008C39.7809 6.83008 41.4203 8.42331 41.4203 10.2798C41.4203 12.1362 39.8271 13.6833 37.8829 13.6833C35.9387 13.6833 34.3916 12.1362 34.3916 10.2798Z" fill="#0092FC"/>
<path d="M40.7599 15.627H35.0566V29.555H40.7599V15.627Z" fill="white"/>
<path d="M59.242 26.808C57.0253 24.5451 55.917 21.7974 55.917 18.4724C55.917 15.1474 57.0253 12.3997 59.242 10.1368C61.5048 7.87396 64.2941 6.76562 67.6191 6.76562C71.9185 6.76562 75.7331 8.98229 77.548 12.4828L72.6251 15.3644C71.7384 13.5449 69.8312 12.395 67.573 12.395C64.1602 12.395 61.6341 14.9211 61.6341 18.4678C61.6341 20.1949 62.2114 21.6589 63.3197 22.8134C64.4281 23.9217 65.8458 24.499 67.5776 24.499C69.882 24.499 71.7892 23.3906 72.6759 21.5711L77.6403 24.4066C75.6915 27.9071 71.9232 30.1699 67.6191 30.1699C64.2941 30.1699 61.5002 29.0616 59.242 26.7988V26.808Z" fill="white"/>
<path d="M90.7693 30.1745C87.4905 30.1745 84.6965 29.0662 82.4337 26.8034C80.1708 24.5405 79.0625 21.7512 79.0625 18.4678C79.0625 15.1843 80.1708 12.4366 82.4337 10.1784C84.6965 7.92014 87.4858 6.76562 90.7693 6.76562C94.0527 6.76562 96.842 7.92014 99.1049 10.1784C101.368 12.4412 102.518 15.189 102.518 18.4678C102.518 21.7466 101.363 24.5405 99.1049 26.8034C96.8466 29.0662 94.0527 30.1745 90.7693 30.1745ZM90.7693 24.5913C92.4964 24.5913 93.9188 24.0141 95.0687 22.8642C96.2186 21.7143 96.7958 20.2503 96.7958 18.477C96.7958 16.7037 96.2186 15.2398 95.0687 14.0899C93.9188 12.94 92.4964 12.3627 90.7693 12.3627C89.0421 12.3627 87.6198 12.94 86.4699 14.0899C85.3615 15.2444 84.7843 16.7037 84.7843 18.477C84.7843 20.2503 85.3615 21.7143 86.4699 22.8642C87.6244 24.0187 89.0421 24.5913 90.7693 24.5913Z" fill="white"/>
<path d="M123.677 9.20786C125.275 10.8473 126.069 13.0639 126.069 15.9456V29.555H120.352V16.6522C120.352 13.6828 118.625 12.0849 115.965 12.0849C112.996 12.0849 111.088 13.9044 111.088 17.5804V29.5504H105.371V7.38835H111.088V9.87286C112.464 7.79012 114.681 6.76953 117.692 6.76953C120.13 6.76953 122.125 7.56846 123.677 9.20786Z" fill="white"/>
</g>
<defs>
<clipPath id="clip0_10075_521313">
<rect width="133" height="36.9444" fill="white" transform="translate(0.5)"/>
</clipPath>
</defs>
</svg>
